<svg width="24" height="25" viewBox="0 0 24 25" fill="none" xmlns="http://www.w3.org/2000/svg">
<g clip-path="url(#clip0_131_64)">
<path d="M11.6055 2.25098C14.7064 2.25098 15.0736 2.26562 16.293 2.32422C17.4264 2.37793 18.0384 2.58301 18.4464 2.75391C18.9859 2.97852 19.3758 3.25195 19.7792 3.68652C20.1872 4.12598 20.4366 4.54102 20.6451 5.12207C20.8038 5.56152 20.9942 6.22559 21.044 7.44141C21.0984 8.75977 21.112 9.15527 21.112 12.4902C21.112 15.8301 21.0984 16.2256 21.044 17.5391C20.9942 18.7598 20.8038 19.4189 20.6451 19.8584C20.4366 20.4395 20.1827 20.8594 19.7792 21.2939C19.3712 21.7334 18.9859 22.002 18.4464 22.2266C18.0384 22.3975 17.4219 22.6025 16.293 22.6563C15.069 22.7148 14.7018 22.7295 11.6055 22.7295C8.50466 22.7295 8.13745 22.7148 6.91797 22.6563C5.78462 22.6025 5.17261 22.3975 4.7646 22.2266C4.22513 22.002 3.83526 21.7285 3.43178 21.2939C3.02378 20.8545 2.77444 20.4395 2.5659 19.8584C2.40724 19.4189 2.21683 18.7549 2.16697 17.5391C2.11256 16.2207 2.09896 15.8252 2.09896 12.4902C2.09896 9.15039 2.11256 8.75488 2.16697 7.44141C2.21683 6.2207 2.40724 5.56152 2.5659 5.12207C2.77444 4.54102 3.02831 4.12109 3.43178 3.68652C3.83979 3.24707 4.22513 2.97852 4.7646 2.75391C5.17261 2.58301 5.78915 2.37793 6.91797 2.32422C8.13745 2.26562 8.50466 2.25098 11.6055 2.25098ZM11.6055 0C8.45479 0 8.06039 0.0146484 6.82277 0.0732422C5.58968 0.131836 4.74194 0.34668 4.00753 0.654297C3.24138 0.976562 2.59311 1.40137 1.94936 2.09961C1.30109 2.79297 0.90668 3.49121 0.607476 4.31152C0.321871 5.10742 0.122402 6.01562 0.068001 7.34375C0.0136002 8.68164 0 9.10645 0 12.5C0 15.8936 0.0136002 16.3184 0.068001 17.6514C0.122402 18.9795 0.321871 19.8926 0.607476 20.6836C0.90668 21.5088 1.30109 22.207 1.94936 22.9004C2.59311 23.5938 3.24138 24.0234 4.00299 24.3408C4.74194 24.6484 5.58515 24.8633 6.81823 24.9219C8.05585 24.9805 8.45026 24.9951 11.601 24.9951C14.7517 24.9951 15.1461 24.9805 16.3837 24.9219C17.6168 24.8633 18.4645 24.6484 19.199 24.3408C19.9606 24.0234 20.6088 23.5938 21.2526 22.9004C21.8963 22.207 22.2953 21.5088 22.5899 20.6885C22.8755 19.8926 23.075 18.9844 23.1294 17.6563C23.1838 16.3232 23.1974 15.8984 23.1974 12.5049C23.1974 9.11133 23.1838 8.68652 23.1294 7.35352C23.075 6.02539 22.8755 5.11231 22.5899 4.32129C22.3043 3.49121 21.9099 2.79297 21.2617 2.09961C20.6179 1.40625 19.9696 0.976563 19.208 0.65918C18.4691 0.351562 17.6259 0.136719 16.3928 0.078125C15.1506 0.0146484 14.7562 0 11.6055 0Z" fill="#A67EEE"/>
<path d="M11.6055 6.0791C8.31422 6.0791 5.64404 8.95508 5.64404 12.5C5.64404 16.0449 8.31422 18.9209 11.6055 18.9209C14.8967 18.9209 17.5669 16.0449 17.5669 12.5C17.5669 8.95508 14.8967 6.0791 11.6055 6.0791ZM11.6055 16.665C9.47023 16.665 7.73847 14.7998 7.73847 12.5C7.73847 10.2002 9.47023 8.33496 11.6055 8.33496C13.7407 8.33496 15.4725 10.2002 15.4725 12.5C15.4725 14.7998 13.7407 16.665 11.6055 16.665Z" fill="#A67EEE"/>
<path d="M19.1944 5.8252C19.1944 6.65528 18.5688 7.32422 17.8026 7.32422C17.032 7.32422 16.4109 6.65039 16.4109 5.8252C16.4109 4.99512 17.0365 4.32617 17.8026 4.32617C18.5688 4.32617 19.1944 5 19.1944 5.8252Z" fill="#A67EEE"/>
</g>
<defs>
<clipPath id="clip0_131_64">
<rect width="23.211" height="25" fill="white"/>
</clipPath>
</defs>
</svg>
