<svg width="24" height="25" viewBox="0 0 24 25" fill="none" xmlns="http://www.w3.org/2000/svg">
<g clip-path="url(#clip0_131_63)">
<path d="M21.4929 0H1.71363C0.766145 0 0 0.805664 0 1.80176V23.1934C0 24.1895 0.766145 25 1.71363 25H21.4929C22.4403 25 23.211 24.1895 23.211 23.1982V1.80176C23.211 0.805664 22.4403 0 21.4929 0ZM6.88623 21.3037H3.44085V9.37012H6.88623V21.3037ZM5.16354 7.74414C4.05739 7.74414 3.16431 6.78223 3.16431 5.5957C3.16431 4.40918 4.05739 3.44727 5.16354 3.44727C6.26516 3.44727 7.15824 4.40918 7.15824 5.5957C7.15824 6.77734 6.26516 7.74414 5.16354 7.74414ZM19.7792 21.3037H16.3384V15.5029C16.3384 14.1211 16.3157 12.3389 14.5477 12.3389C12.757 12.3389 12.485 13.8477 12.485 15.4053V21.3037H9.04867V9.37012H12.349V11.001H12.3943C12.8522 10.0635 13.9765 9.07227 15.6493 9.07227C19.1355 9.07227 19.7792 11.543 19.7792 14.7559V21.3037Z" fill="#A67EEE"/>
</g>
<defs>
<clipPath id="clip0_131_63">
<rect width="23.211" height="25" fill="white"/>
</clipPath>
</defs>
</svg>
