<svg width="25" height="25" viewBox="0 0 25 25" fill="none" xmlns="http://www.w3.org/2000/svg">
<path d="M22.9166 7.84961V17.709C22.9166 18.5061 22.6121 19.2731 22.0652 19.853C21.5184 20.4329 20.7706 20.782 19.9749 20.8288L19.7916 20.834H5.20825C4.41116 20.834 3.64417 20.5295 3.06423 19.9826C2.48429 19.4358 2.13522 18.688 2.08846 17.8923L2.08325 17.709V7.84961L11.9218 14.409L12.0426 14.4777C12.185 14.5473 12.3414 14.5835 12.4999 14.5835C12.6584 14.5835 12.8148 14.5473 12.9572 14.4777L13.078 14.409L22.9166 7.84961Z" fill="#A67EEE"/>
<path d="M19.7917 4.16699C20.9167 4.16699 21.9031 4.76074 22.4531 5.65345L12.5 12.2889L2.54688 5.65345C2.80805 5.22925 3.16689 4.87366 3.59345 4.61635C4.02 4.35904 4.50191 4.20747 4.99896 4.17428L5.20833 4.16699H19.7917Z" fill="#A67EEE"/>
</svg>
